<?xml version="1.0" encoding="UTF-8"?>
<svg width="377px" height="199px" viewBox="0 0 377 199" version="1.1" xmlns="http://www.w3.org/2000/svg" xmlns:xlink="http://www.w3.org/1999/xlink">
    <defs>
        <rect id="path-1" x="0" y="0" width="377" height="199"></rect>
        <path d="M161.33243,324 L161.33243,324 C72.2328762,324 0,252.62993 0,164.594652 L0,164.594652 C0,73.6789671 74.5928228,0 166.584468,0 L166.584468,0 C255.684021,0 327.916898,71.3700699 327.916898,159.405348 L327.916898,159.405348 C327.916898,250.298173 253.347211,324 161.33243,324" id="path-3"></path>
    </defs>
    <g id="UI-KIT-+-Contenu-riche" stroke="none" stroke-width="1" fill="none" fill-rule="evenodd">
        <g id="Blocs" transform="translate(-138.000000, -13369.000000)">
            <g id="04-Solutions" transform="translate(0.000000, 13319.000000)">
                <g id="BG" transform="translate(138.000000, 50.000000)">
                    <mask id="mask-2" fill="white">
                        <use xlink:href="#path-1"></use>
                    </mask>
                    <use id="Mask" fill="#4D2CF8" xlink:href="#path-1"></use>
                    <g id="Group-13" mask="url(#mask-2)">
                        <g transform="translate(-171.648215, -561.000000)">
                            <path d="M332.106607,671.685583 L332.106607,671.685583 C243.096271,671.685583 170.935723,602.587553 170.935723,517.354844 L170.935723,517.354844 C170.935723,429.333425 245.453855,358 337.353386,358 L498.524269,358 L498.524269,512.33074 C498.524269,600.330026 424.029252,671.685583 332.106607,671.685583" id="Fill-1" fill="#92D283" transform="translate(334.729996, 514.842792) scale(-1, 1) translate(-334.729996, -514.842792) "></path>
                            <g id="Image-1" stroke-width="1" fill="none" transform="translate(326.207772, 633.000000)">
                                <mask id="mask-4" fill="white">
                                    <use xlink:href="#path-3"></use>
                                </mask>
                                <use id="Mask" fill="#839DFF" xlink:href="#path-3"></use>
                            </g>
                            <path d="M659.308709,671.685583 L659.308709,671.685583 C570.299001,671.685583 498.138963,602.587553 498.138963,517.354844 L498.138963,517.354844 C498.138963,429.333425 572.656568,358 664.555451,358 L664.555451,358 C753.565159,358 825.725197,427.098031 825.725197,512.33074 L825.725197,512.33074 C825.725197,600.330026 751.230705,671.685583 659.308709,671.685583" id="Fill-7" fill="#231F20"></path>
                            <path d="M161.169746,949 L161.169746,949 C72.1600383,949 0,877.560671 0,789.439961 L0,789.439961 C0,698.43605 74.5176053,624.685583 166.416488,624.685583 L166.416488,624.685583 C255.426196,624.685583 327.586234,696.124912 327.586234,784.245622 L327.586234,784.245622 C327.586234,875.226651 253.091742,949 161.169746,949" id="Fill-10" fill="#FFF62F"></path>
                        </g>
                    </g>
                </g>
            </g>
        </g>
    </g>
</svg>