<?xml version="1.0" encoding="UTF-8"?>
<svg width="336px" height="860px" viewBox="0 0 336 860" version="1.1" xmlns="http://www.w3.org/2000/svg" xmlns:xlink="http://www.w3.org/1999/xlink">
    <title>IMAGE</title>
    <defs>
        <rect id="path-1" x="0" y="0" width="336" height="860"></rect>
        <path d="M171.537917,347.258765 L171.537917,347.258765 C76.8021478,347.258765 0,270.765301 0,176.410295 L0,176.410295 C0,78.9681083 79.3113788,0 177.122186,0 L177.122186,0 C271.857955,0 348.660103,76.4934638 348.660103,170.84847 L348.660103,170.84847 C348.660103,268.266155 269.373324,347.258765 171.537917,347.258765" id="path-3"></path>
        <path d="M-168.462083,-289.741235 L-168.462083,-289.741235 C-263.197852,-289.741235 -340,-366.234699 -340,-460.589705 L-340,-460.589705 C-340,-558.031892 -260.688621,-637 -162.877814,-637 L-162.877814,-637 C-68.1420449,-637 8.66010294,-560.506536 8.66010294,-466.15153 L8.66010294,-466.15153 C8.66010294,-368.733845 -70.6266756,-289.741235 -168.462083,-289.741235" id="path-5"></path>
        <path d="M338.379406,651.017529 L338.379406,651.017529 C243.643637,651.017529 166.841489,574.524065 166.841489,480.169059 L166.841489,480.169059 C166.841489,382.726873 246.152868,303.758765 343.963675,303.758765 L343.963675,303.758765 C438.699444,303.758765 515.501592,380.252228 515.501592,474.607235 L515.501592,474.607235 C515.501592,572.02492 436.214814,651.017529 338.379406,651.017529" id="path-7"></path>
    </defs>
    <g id="Pages" stroke="none" stroke-width="1" fill="none" fill-rule="evenodd">
        <g id="04_Nos-solutions_pop-in" transform="translate(-375.000000, 0.000000)">
            <g id="IMAGE" transform="translate(375.000000, 0.000000)">
                <mask id="mask-2" fill="white">
                    <use xlink:href="#path-1"></use>
                </mask>
                <use id="Mask" fill="#4D2CF8" xlink:href="#path-1"></use>
                <g id="Group-13" mask="url(#mask-2)">
                    <g transform="translate(-273.684352, -561.000000)">
                        <path d="M353.114843,964.703914 L353.114843,964.703914 C258.473935,964.703914 181.748691,890.645591 181.748691,799.29434 L181.748691,799.29434 C181.748691,704.954189 260.980653,628.5 358.69352,628.5 L530.059672,628.5 L530.059672,793.909574 C530.059672,888.226004 450.852285,964.703914 353.114843,964.703914" id="Fill-1" fill="#92D283" transform="translate(355.904181, 796.601957) scale(-1, 1) translate(-355.904181, -796.601957) "></path>
                        <g id="Image-1" stroke-width="1" fill="none" transform="translate(346.842862, 923.241235)">
                            <mask id="mask-4" fill="white">
                                <use xlink:href="#path-3"></use>
                            </mask>
                            <use id="Mask" fill="#839DFF" xlink:href="#path-3"></use>
                            <mask id="mask-6" fill="white">
                                <use xlink:href="#path-5"></use>
                            </mask>
                            <use id="Mask-Copy" fill="#241573" xlink:href="#path-5"></use>
                            <mask id="mask-8" fill="white">
                                <use xlink:href="#path-7"></use>
                            </mask>
                            <use id="Mask-Copy" fill="#241573" xlink:href="#path-7"></use>
                        </g>
                        <path d="M701.014934,964.703914 L701.014934,964.703914 C606.374694,964.703914 529.649992,890.645591 529.649992,799.29434 L529.649992,799.29434 C529.649992,704.954189 608.881395,628.5 706.593572,628.5 L706.593572,628.5 C801.233812,628.5 877.958515,702.558324 877.958515,793.909574 L877.958515,793.909574 C877.958515,888.226004 798.751687,964.703914 701.014934,964.703914" id="Fill-7" fill="#231F20"></path>
                        <path d="M171.364942,1261.92571 L171.364942,1261.92571 C76.7247025,1261.92571 0,1185.35801 0,1090.91144 L0,1090.91144 C0,993.374698 79.2314032,914.329958 176.94358,914.329958 L176.94358,914.329958 C271.58382,914.329958 348.308523,990.897652 348.308523,1085.34422 L348.308523,1085.34422 C348.308523,1182.85644 269.101695,1261.92571 171.364942,1261.92571" id="Fill-10" fill="#FFF62F"></path>
                        <path d="M527.364942,674.92571 L527.364942,674.92571 C432.724702,674.92571 356,598.358015 356,503.911444 L356,503.911444 C356,406.374698 435.231403,327.329958 532.94358,327.329958 L532.94358,327.329958 C627.58382,327.329958 704.308523,403.897652 704.308523,498.344223 L704.308523,498.344223 C704.308523,595.856444 625.101695,674.92571 527.364942,674.92571" id="Fill-10-Copy" fill="#FFF62F"></path>
                        <path d="M335.364942,1570.92571 L335.364942,1570.92571 C240.724702,1570.92571 164,1494.35801 164,1399.91144 L164,1399.91144 C164,1302.3747 243.231403,1223.32996 340.94358,1223.32996 L340.94358,1223.32996 C435.58382,1223.32996 512.308523,1299.89765 512.308523,1394.34422 L512.308523,1394.34422 C512.308523,1491.85644 433.101695,1570.92571 335.364942,1570.92571" id="Fill-10-Copy-2" fill="#C8E8C1"></path>
                    </g>
                </g>
            </g>
        </g>
    </g>
</svg>