<?xml version="1.0" encoding="UTF-8"?>
<svg width="303px" height="301px" viewBox="0 0 303 301" version="1.1" xmlns="http://www.w3.org/2000/svg" xmlns:xlink="http://www.w3.org/1999/xlink">
    <title>Formes</title>
    <defs>
        <path d="M75.5,0 L151,0 L151,0 L151,75.5 C151,117.197499 117.197499,151 75.5,151 C33.8025014,151 5.10647082e-15,117.197499 0,75.5 C-5.10647082e-15,33.8025014 33.8025014,7.65970623e-15 75.5,0 Z" id="path-1"></path>
    </defs>
    <g id="Home" stroke="none" stroke-width="1" fill="none" fill-rule="evenodd">
        <g id="01-Home_Valorplas-Vidéo" transform="translate(-451.000000, -4358.000000)">
            <g id="05-Citation-Présidente" transform="translate(0.000000, 3901.000000)">
                <g id="Formes" transform="translate(451.000000, 457.000000)">
                    <path d="M79,150 L151,150 L151,150 L151,222 C151,265.630495 115.630495,301 72,301 L0,301 L0,301 L0,229 C-5.34319463e-15,185.369505 35.3695048,150 79,150 Z" id="Rectangle-Copy-12" fill="#92D283"></path>
                    <rect id="Rectangle-Copy-17" fill="#FFF62F" x="152" y="0" width="151" height="151" rx="75.5"></rect>
                    <g id="edward-cisneros-_H6wpor9mjs-unsplash" transform="translate(151.000000, 150.000000)">
                        <mask id="mask-2" fill="white">
                            <use xlink:href="#path-1"></use>
                        </mask>
                        <use id="Mask" fill="#FFF62F" xlink:href="#path-1"></use>
                        <image mask="url(#mask-2)" x="-17.1054688" y="0" width="226.5" height="151" xlink:href="https://picsum.photos/226/151"></image>
                    </g>
                </g>
            </g>
        </g>
    </g>
</svg>