<?xml version="1.0" encoding="UTF-8"?>
<svg width="848px" height="63px" viewBox="0 0 848 63" version="1.1" xmlns="http://www.w3.org/2000/svg" xmlns:xlink="http://www.w3.org/1999/xlink">
    <title>logo-desktop</title>
    <g id="LOGO/Valorplast/LOGO_Ligne_Noir" stroke="none" stroke-width="1" fill="none" fill-rule="evenodd">
        <path d="M767.9516,63.3012 C755.2466,63.3012 745.7766,58.5072 740.9826,54.4312 L747.8156,44.6022 C751.7696,47.9582 759.0816,52.1542 766.9936,52.1542 C775.9826,52.1542 778.5006,48.3182 778.5006,44.7222 C778.5006,40.7672 775.5036,39.2082 769.7496,37.8902 L761.1196,35.9722 C753.3286,34.2942 743.9796,29.9792 743.9796,18.1122 C743.9796,9.4822 751.1716,0.0132 766.5136,0.0132 C778.7396,0.0132 786.5316,5.0482 790.9656,8.4042 L783.8936,18.5922 C780.7776,15.9552 774.5446,11.1602 766.3936,11.1602 C758.9616,11.1602 756.9246,14.7562 756.9246,17.6332 C756.9246,21.5892 759.4416,23.1472 764.2366,24.2262 L774.1856,26.5032 C784.9726,29.0202 791.6856,33.6952 791.6856,43.6442 C791.6856,53.9522 784.0136,63.3012 767.9516,63.3012 M729.2483,31.5923 C729.2923,31.6073 729.3363,31.6233 729.3803,31.6433 L729.2483,31.6433 L729.2483,31.5923 Z M700.6763,51.5403 C690.3683,51.5403 683.6553,43.1503 683.6553,31.6433 C683.6553,20.0163 690.3683,11.7463 700.6763,11.7463 C711.1053,11.7463 717.8163,20.0163 717.8163,31.6433 C717.8163,43.1503 711.1053,51.5403 700.6763,51.5403 L700.6763,51.5403 Z M700.6763,-0.0007 C682.2173,-0.0007 669.6323,13.0643 669.6323,31.6433 C669.6323,50.2223 682.2173,63.2873 700.6763,63.2873 C707.8433,63.2873 715.4293,61.2843 720.7033,55.2213 L720.7033,61.8483 L731.8413,61.8483 L731.8413,31.6433 C731.8413,13.0643 719.1343,-0.0007 700.6763,-0.0007 L700.6763,-0.0007 Z M393.3658,31.5923 C393.4098,31.6073 393.4538,31.6233 393.4968,31.6433 L393.3658,31.6433 L393.3658,31.5923 Z M364.7938,51.5403 C354.4858,51.5403 347.7728,43.1503 347.7728,31.6433 C347.7728,20.0163 354.4858,11.7463 364.7938,11.7463 C375.2228,11.7463 381.9338,20.0163 381.9338,31.6433 C381.9338,43.1503 375.2228,51.5403 364.7938,51.5403 L364.7938,51.5403 Z M364.7938,-0.0007 C346.3348,-0.0007 333.7498,13.0643 333.7498,31.6433 C333.7498,50.2223 346.3348,63.2873 364.7938,63.2873 C371.9608,63.2873 379.5468,61.2843 384.8208,55.2213 L384.8208,61.8483 L395.9588,61.8483 L395.9588,31.6433 C395.9588,13.0643 383.2518,-0.0007 364.7938,-0.0007 L364.7938,-0.0007 Z M554.2209,0.7431 L554.2209,0.7491 C554.0729,0.7471 553.9269,0.7391 553.7779,0.7391 C533.9279,0.7391 522.7339,13.8041 522.7339,32.3821 L522.7339,61.8491 L536.7579,61.8491 L536.7579,31.7481 C536.7579,20.1211 542.8189,13.3451 553.7779,13.3451 C553.9289,13.3451 554.0719,13.3601 554.2209,13.3641 L554.2209,13.3511 L559.4289,13.3511 L559.4289,6.6171 L559.4289,5.3281 L559.4289,1.1771 L559.4289,0.7431 L554.2209,0.7431 Z M798.8166,0.7388 L842.9686,0.7388 L842.9686,12.5868 L824.8146,12.5868 L824.8146,41.7318 C824.8146,47.3748 826.4086,51.1768 833.7696,51.1768 C837.4486,51.1768 839.9016,50.0728 843.5816,47.8648 L847.7526,58.2918 C842.9686,61.8488 837.3256,63.3208 831.9286,63.3208 C816.2276,63.3208 810.7076,54.8568 810.7076,43.5718 L810.7076,12.5868 L798.8166,12.5868 L798.8166,0.7388 Z M640.0946,0.7388 L640.0946,50.5428 L666.5916,50.5428 L666.5916,61.8488 L626.7576,61.8488 L626.7576,0.7388 L640.0946,0.7388 Z M582.0295,11.4764 L582.0295,32.0794 L594.0775,32.0794 C600.7995,32.0794 605.2515,27.4524 605.2515,21.1674 C605.2515,15.5794 600.7995,11.4764 594.0775,11.4764 L582.0295,11.4764 Z M596.1725,0.7384 C609.6165,0.7384 618.6085,9.9924 618.6085,20.9054 C618.6085,32.9524 609.4415,42.9044 595.9115,42.9044 L582.0295,42.9044 L582.0295,61.8484 L568.8475,61.8484 L568.8475,0.7384 L596.1725,0.7384 Z M465.2964,31.6433 C465.2964,43.1503 472.0084,51.5403 482.3174,51.5403 C492.7454,51.5403 499.4574,43.1503 499.4574,31.6433 C499.4574,20.0163 492.7454,11.7463 482.3174,11.7463 C472.0084,11.7463 465.2964,20.0163 465.2964,31.6433 M513.4814,31.6433 C513.4814,50.2223 500.7754,63.2873 482.3174,63.2873 C463.8584,63.2873 451.2724,50.2223 451.2724,31.6433 C451.2724,13.0643 463.8584,-0.0007 482.3174,-0.0007 C500.7754,-0.0007 513.4814,13.0643 513.4814,31.6433 M316.8833,1.4377 L300.9423,46.0267 L285.1203,1.4377 L270.1383,1.4377 L293.3913,61.8487 L307.7743,61.8487 L331.2673,1.4377 L316.8833,1.4377 Z M409.6562,0.7384 L409.6562,61.8484 L448.4512,61.8484 L448.4512,50.8384 L422.6442,50.8384 L422.6442,0.7384 L409.6562,0.7384 Z" id="Fill-11" fill="#231F20"></path>
        <polygon id="Fill-15" fill="#F4E644" points="-1.13686838e-13 63.3208 63 63.3208 63 0.3208 -1.13686838e-13 0.3208"></polygon>
        <path d="M157.258306,63.3208 L157.258306,63.3208 C140.140728,63.3208 126.263786,49.443858 126.263786,32.3262806 L126.263786,32.3262806 C126.263786,14.6498216 140.592808,0.3208 158.267804,0.3208 L189.263786,0.3208 L189.263786,31.3153194 C189.263786,48.9917784 174.934765,63.3208 157.258306,63.3208" id="Fill-17" fill="#4D2CF7"></path>
        <path d="M220.257574,63.3208 L220.257574,63.3208 C203.139997,63.3208 189.263055,49.443858 189.263055,32.3262806 L189.263055,32.3262806 C189.263055,14.6498216 203.592076,0.3208 221.268535,0.3208 L221.268535,0.3208 C238.386113,0.3208 252.263055,14.197742 252.263055,31.3153194 L252.263055,31.3153194 C252.263055,48.9917784 237.934033,63.3208 220.257574,63.3208" id="Fill-18" fill="#1D1D1B"></path>
        <path d="M98.7597896,63.3208 L63.0001463,63.3208 L63.0001463,27.5611567 C63.0001463,12.5167081 75.1960544,0.3208 90.240503,0.3208 L126.000146,0.3208 L126.000146,36.0804433 C126.000146,51.1248919 113.804238,63.3208 98.7597896,63.3208" id="Fill-19" fill="#91D182"></path>
    </g>
</svg>