<?xml version="1.0" encoding="UTF-8"?>
<svg width="361px" height="402px" viewBox="0 0 361 402" version="1.1" xmlns="http://www.w3.org/2000/svg" xmlns:xlink="http://www.w3.org/1999/xlink">
    <title>BG</title>
    <defs>
        <rect id="path-1" x="0" y="0" width="361" height="402"></rect>
        <path d="M154.48543,324 L154.48543,324 C69.1672899,324 0,252.62993 0,164.594652 L0,164.594652 C0,73.6789671 71.4270797,0 159.51457,0 L159.51457,0 C244.83271,0 314,71.3700699 314,159.405348 L314,159.405348 C314,250.298173 242.595075,324 154.48543,324" id="path-3"></path>
    </defs>
    <g id="Home" stroke="none" stroke-width="1" fill="none" fill-rule="evenodd">
        <g id="01-Home_Valorplas-Vidéo" transform="translate(-138.000000, -3385.000000)">
            <g id="04-Solutions" transform="translate(136.000000, 3203.525974)">
                <g id="BG" transform="translate(2.000000, 181.474026)">
                    <mask id="mask-2" fill="white">
                        <use xlink:href="#path-1"></use>
                    </mask>
                    <use id="Mask" fill="#4D2CF8" xlink:href="#path-1"></use>
                    <g id="Group-13" mask="url(#mask-2)">
                        <g transform="translate(-164.363410, -358.000000)">
                            <path d="M318.011897,671.685583 L318.011897,671.685583 C232.779188,671.685583 163.681157,602.587553 163.681157,517.354844 L163.681157,517.354844 C163.681157,429.333425 235.036715,358 323.036001,358 L477.36674,358 L477.36674,512.33074 C477.36674,600.330026 406.033315,671.685583 318.011897,671.685583" id="Fill-1" fill="#92D283" transform="translate(320.523949, 514.842792) scale(-1, 1) translate(-320.523949, -514.842792) "></path>
                            <g id="Image-1" stroke-width="1" fill="none" transform="translate(312.363410, 633.000000)">
                                <mask id="mask-4" fill="white">
                                    <use xlink:href="#path-3"></use>
                                </mask>
                                <use id="Mask" fill="#839DFF" xlink:href="#path-3"></use>
                            </g>
                            <path d="M631.327438,671.685583 L631.327438,671.685583 C546.09533,671.685583 476.997787,602.587553 476.997787,517.354844 L476.997787,517.354844 C476.997787,429.333425 548.352841,358 636.351506,358 L636.351506,358 C721.583614,358 790.681157,427.098031 790.681157,512.33074 L790.681157,512.33074 C790.681157,600.330026 719.348235,671.685583 631.327438,671.685583" id="Fill-7" fill="#231F20"></path>
                            <path d="M154.329651,949 L154.329651,949 C69.0975433,949 0,877.560671 0,789.439961 L0,789.439961 C0,698.43605 71.3550544,624.685583 159.353719,624.685583 L159.353719,624.685583 C244.585827,624.685583 313.68337,696.124912 313.68337,784.245622 L313.68337,784.245622 C313.68337,875.226651 242.350448,949 154.329651,949" id="Fill-10" fill="#FFF62F"></path>
                        </g>
                    </g>
                </g>
            </g>
        </g>
    </g>
</svg>